#!OML:ASF F:\VICON\USERDATA\INSTALL\rory3\rory3.ASF
:FULLY-SPECIFIED
:DEGREES
2145
root 0.0107677 18.4194 1.94461 3.81382 -6.49993 -1.54313
lowerback 12.9222 -0.350623 -1.13088
upperback 2.50432 -0.65058 -0.52753
thorax -4.60439 -0.310852 0.194736
lowerneck -7.86497 -9.36842 -8.65899
upperneck 1.482 -12.325 12.8645
head 3.08026 -5.84891 4.55246
rclavicle -1.03368e-014 -3.97569e-016
rhumerus 21.8169 -17.4545 -35.5764
rradius 88.2838
rwrist 17.5254
rhand -69.5342 345.688
rfingers 7.12502
rthumb -41.1716 -39.1733
lclavicle -1.03368e-014 -3.97569e-016
lhumerus -30.0217 -3.12405 67.2896
lradius 52.5247
lwrist -6.62577
lhand -34.612 18.0734
lfingers 7.12502
lthumb -7.77025 47.9106
rfemur -17.4346 15.5294 9.54615
rtibia 37.8186
rfoot -14.5125 -15.3713
rtoes -17.2373
lfemur -10.6464 1.27952 -11.6143
ltibia 30.6108
lfoot -19.3763 10.4872
ltoes -15.2746
2146
root -0.0160609 18.4165 1.94583 3.79304 -6.25081 -1.50315
lowerback 12.765 -0.281636 -0.972649
upperback 2.49721 -0.542469 -0.660729
thorax -4.52948 -0.260588 -0.0527879
lowerneck -7.82699 -9.47667 -8.32374
upperneck 1.31381 -12.4849 12.7714
head 3.01343 -5.93373 4.4645
rclavicle 1.04362e-014 -2.38542e-015
rhumerus 20.915 -16.5787 -34.213
rradius 88.3229
rwrist 19.5662
rhand -69.2107 349.442
rfingers 7.12502
rthumb -40.8678 -35.5165
lclavicle 1.04362e-014 -2.38542e-015
lhumerus -29.7836 -3.49165 67.3066
lradius 52.4322
lwrist -6.56135
lhand -35.0704 18.2294
lfingers 7.12502
lthumb -8.21274 48.0498
rfemur -16.922 15.5675 9.63899
rtibia 37.3139
rfoot -14.7386 -15.7168
rtoes -17.8242
lfemur -10.7085 1.17707 -11.5464
ltibia 30.6658
lfoot -19.3002 10.3438
ltoes -15.2108
2147
root -0.0436726 18.415 1.94578 3.75359 -6.04437 -1.5029
lowerback 12.6559 -0.228472 -0.752733
upperback 2.49238 -0.448344 -0.797877
thorax -4.47796 -0.217786 -0.336184
lowerneck -7.7759 -9.51013 -8.18883
upperneck 1.14072 -12.5443 12.9883
head 2.9676 -5.96241 4.50947
rclavicle -1.81888e-014 -6.75868e-015
rhumerus 20 -15.3981 -32.7467
rradius 88.4151
rwrist 21.5425
rhand -68.4271 357.032
rfingers 7.12502
rthumb -40.1311 -28.1542
lclavicle -1.81888e-014 -6.75868e-015
lhumerus -29.6502 -3.78191 67.2283
lradius 52.478
lwrist -6.46246
lhand -35.0739 18.0476
lfingers 7.12502
lthumb -8.21611 47.8679
rfemur -16.4411 15.7262 9.75297
rtibia 36.6668
rfoot -14.9741 -15.9514
rtoes -17.8623
lfemur -10.7379 1.1599 -11.4258
ltibia 30.6927
lfoot -19.2461 10.1541
ltoes -15.0748
2148
root -0.0700179 18.4078 1.94704 3.6609 -5.89341 -1.43926
lowerback 12.593 -0.186622 -0.623407
upperback 2.49918 -0.380537 -0.907587
thorax -4.43781 -0.186549 -0.535066
lowerneck -7.64479 -9.48095 -8.27707
upperneck 0.879919 -12.5074 13.4348
head 2.9037 -5.94415 4.67093
rclavicle -2.14687e-014 5.96354e-015
rhumerus 19.2616 -13.9947 -31.3606
rradius 88.5389
rwrist 23.5543
rhand -67.4892 366.253
rfingers 7.12502
rthumb -39.2481 -19.1951
lclavicle -2.14687e-014 5.96354e-015
lhumerus -29.587 -3.94383 67.1972
lradius 52.5228
lwrist -6.28226
lhand -35.2114 17.5238
lfingers 7.12502
lthumb -8.34875 47.3389
rfemur -15.924 15.905 9.78172
rtibia 35.9621
rfoot -15.3276 -16.0951
rtoes -17.082
lfemur -10.7032 1.22159 -11.3893
ltibia 30.7273
lfoot -19.1793 10.0601
ltoes -15.4039
2149
root -0.0994178 18.4001 1.95027 3.54756 -5.74402 -1.39852
lowerback 12.5529 -0.191532 -0.551204
upperback 2.50408 -0.379475 -0.959123
thorax -4.4115 -0.187135 -0.629962
lowerneck -7.76528 -9.48628 -8.23204
upperneck 0.924019 -12.5196 13.4897
head 2.93907 -5.94267 4.67306
rclavicle -5.26779e-015 1.19271e-015
rhumerus 18.6555 -12.4198 -30.0542
rradius 88.6744
rwrist 25.7814
rhand -66.8042 372.189
rfingers 7.12502
rthumb -38.6021 -13.4442
lclavicle -5.26779e-015 1.19271e-015
lhumerus -29.6379 -3.90323 67.2127
lradius 52.5987
lwrist -6.17107
lhand -35.3234 17.2858
lfingers 7.12502
lthumb -8.45691 47.0965
rfemur -15.3786 16.0779 9.84362
rtibia 35.3022
rfoot -15.728 -16.2981
rtoes -16.1847
lfemur -10.6547 1.27484 -11.3136
ltibia 30.7639
lfoot -19.0375 9.97075
ltoes -15.9239
2150
root -0.13079 18.3949 1.95249 3.51847 -5.59439 -1.46212
lowerback 12.4514 -0.254186 -0.369021
upperback 2.47046 -0.439223 -0.991317
thorax -4.39298 -0.218942 -0.757094
lowerneck -7.85388 -9.47229 -8.18535
upperneck 0.959431 -12.5059 13.5259
head 2.96241 -5.93032 4.67327
rclavicle 4.96962e-016 3.97569e-015
rhumerus 18.0968 -10.8031 -28.9418
rradius 88.8436
rwrist 28.4912
rhand -66.6545 373.57
rfingers 7.12502
rthumb -38.4609 -12.1021
lclavicle 4.96962e-016 3.97569e-015
lhumerus -29.8582 -3.71375 67.1651
lradius 52.8073
lwrist -6.075
lhand -35.4271 17.3179
lfingers 7.12502
lthumb -8.55697 47.1245
rfemur -14.9656 16.2166 9.99827
rtibia 34.7705
rfoot -16.0903 -16.3754
rtoes -15.4269
lfemur -10.6831 1.29373 -11.1204
ltibia 30.8042
lfoot -18.9441 9.9156
ltoes -16.412
